<svg width="322" height="198" viewBox="0 0 322 198" fill="none" xmlns="http://www.w3.org/2000/svg">
<path d="M0 91L139.295 0C129.15 18.2778 97.155 62.0667 50.3333 91C90.6 100.333 134.222 141.556 151 161V182C117.288 178.267 36.2868 119.778 0 91Z" fill="#D6AE2F"/>
<path d="M322 91L183.628 0C193.705 18.2778 225.488 62.0667 272 91C232 100.333 188.667 141.556 172 161V182C205.488 178.267 285.953 119.778 322 91Z" fill="#D6AE2F"/>
<path d="M129 181.705C129 197.776 145.598 198 161.746 198C177.893 198 198 197.776 198 181.705C198 165.634 177.893 127 161.746 127C145.598 127 129 165.634 129 181.705Z" fill="#D6AE2F"/>
</svg>
